# This file uses centimeters as units for non-parametric coordinates.

mtllib WhiteWall.mtl
g default
v -0.029285 -0.009175 0.157444
v 0.029286 -0.009175 0.157444
v -0.029285 0.126736 0.157444
v 0.029286 0.126736 0.157444
v -0.029286 0.126736 -0.093791
v 0.029286 0.126736 -0.093791
v -0.029286 -0.009175 -0.093791
v 0.029286 -0.009175 -0.093791
vt 0.375000 0.000000
vt 0.625000 0.000000
vt 0.375000 0.250000
vt 0.625000 0.250000
vt 0.375000 0.500000
vt 0.625000 0.500000
vt 0.375000 0.750000
vt 0.625000 0.750000
vt 0.375000 1.000000
vt 0.625000 1.000000
vt 0.875000 0.000000
vt 0.875000 0.250000
vt 0.125000 0.000000
vt 0.125000 0.250000
vn 0.000000 1.000000 0.000000
vn 0.000000 1.000000 0.000000
vn 0.000000 1.000000 0.000000
vn 0.000000 1.000000 0.000000
vn 0.000003 0.000000 -1.000000
vn 0.000003 0.000000 -1.000000
vn 0.000002 0.000000 -1.000000
vn 0.000002 0.000000 -1.000000
vn 0.000000 -1.000000 0.000000
vn 0.000000 -1.000000 0.000000
vn 0.000000 -1.000000 0.000000
vn 0.000000 -1.000000 0.000000
vn 1.000000 0.000000 0.000000
vn 1.000000 0.000000 0.000000
vn 1.000000 0.000000 0.000000
vn 1.000000 0.000000 0.000000
vn -1.000000 0.000000 0.000001
vn -1.000000 0.000000 0.000001
vn -1.000000 0.000000 0.000001
vn -1.000000 0.000000 0.000001
vn 0.000000 0.000000 1.000000
vn -0.000000 0.000000 1.000000
vn -0.000000 0.000000 1.000000
vn -0.000000 0.000000 1.000000
s 1
g pasted__pasted__pCube3 pasted__group10 group13
usemtl pasted__pasted__phong3SG3
f 3/3/1 4/4/2 5/5/3
f 5/5/3 4/4/2 6/6/4
s 2
f 5/5/5 6/6/6 7/7/7
f 7/7/7 6/6/6 8/8/8
s 3
f 7/7/9 8/8/10 1/9/11
f 1/9/11 8/8/10 2/10/12
s 4
f 2/2/13 8/11/14 4/4/15
f 4/4/15 8/11/14 6/12/16
s 5
f 7/13/17 1/1/18 5/14/19
f 5/14/19 1/1/18 3/3/20
s 6
f 1/9/21 2/10/22 3/3/23
f 3/3/23 2/10/22 4/4/24
g default
v -0.029285 -0.009175 0.157444
v 0.029286 -0.009175 0.157444
v -0.029285 0.126736 0.157444
v 0.029286 0.126736 0.157444
v -0.029286 0.126736 -0.093791
v 0.029286 0.126736 -0.093791
v -0.029286 -0.009175 -0.093791
v 0.029286 -0.009175 -0.093791
vt 0.375000 0.000000
vt 0.625000 0.000000
vt 0.375000 0.250000
vt 0.625000 0.250000
vt 0.375000 0.500000
vt 0.625000 0.500000
vt 0.375000 0.750000
vt 0.625000 0.750000
vt 0.375000 1.000000
vt 0.625000 1.000000
vt 0.875000 0.000000
vt 0.875000 0.250000
vt 0.125000 0.000000
vt 0.125000 0.250000
vn 0.000000 1.000000 0.000000
vn 0.000000 1.000000 0.000000
vn 0.000000 1.000000 0.000000
vn 0.000000 1.000000 0.000000
vn 0.000003 0.000000 -1.000000
vn 0.000003 0.000000 -1.000000
vn 0.000002 0.000000 -1.000000
vn 0.000002 0.000000 -1.000000
vn 0.000000 -1.000000 0.000000
vn 0.000000 -1.000000 0.000000
vn 0.000000 -1.000000 0.000000
vn 0.000000 -1.000000 0.000000
vn 1.000000 0.000000 0.000000
vn 1.000000 0.000000 0.000000
vn 1.000000 0.000000 0.000000
vn 1.000000 0.000000 0.000000
vn -1.000000 0.000000 0.000001
vn -1.000000 0.000000 0.000001
vn -1.000000 0.000000 0.000001
vn -1.000000 0.000000 0.000001
vn 0.000000 0.000000 1.000000
vn -0.000000 0.000000 1.000000
vn -0.000000 0.000000 1.000000
vn -0.000000 0.000000 1.000000
s 1
g pasted__pasted__pCube3 pasted__group10 group13
f 11/17/25 12/18/26 13/19/27
f 13/19/27 12/18/26 14/20/28
s 2
f 13/19/29 14/20/30 15/21/31
f 15/21/31 14/20/30 16/22/32
s 3
f 15/21/33 16/22/34 9/23/35
f 9/23/35 16/22/34 10/24/36
s 4
f 10/16/37 16/25/38 12/18/39
f 12/18/39 16/25/38 14/26/40
s 5
f 15/27/41 9/15/42 13/28/43
f 13/28/43 9/15/42 11/17/44
s 6
f 9/23/45 10/24/46 11/17/47
f 11/17/47 10/24/46 12/18/48
g default
v -0.029285 -0.009175 0.157444
v 0.029286 -0.009175 0.157444
v -0.029285 0.126736 0.157444
v 0.029286 0.126736 0.157444
v -0.029286 0.126736 -0.093791
v 0.029286 0.126736 -0.093791
v -0.029286 -0.009175 -0.093791
v 0.029286 -0.009175 -0.093791
vt 0.375000 0.000000
vt 0.625000 0.000000
vt 0.375000 0.250000
vt 0.625000 0.250000
vt 0.375000 0.500000
vt 0.625000 0.500000
vt 0.375000 0.750000
vt 0.625000 0.750000
vt 0.375000 1.000000
vt 0.625000 1.000000
vt 0.875000 0.000000
vt 0.875000 0.250000
vt 0.125000 0.000000
vt 0.125000 0.250000
vn 0.000000 1.000000 0.000000
vn 0.000000 1.000000 0.000000
vn 0.000000 1.000000 0.000000
vn 0.000000 1.000000 0.000000
vn 0.000003 0.000000 -1.000000
vn 0.000003 0.000000 -1.000000
vn 0.000002 0.000000 -1.000000
vn 0.000002 0.000000 -1.000000
vn 0.000000 -1.000000 0.000000
vn 0.000000 -1.000000 0.000000
vn 0.000000 -1.000000 0.000000
vn 0.000000 -1.000000 0.000000
vn 1.000000 0.000000 0.000000
vn 1.000000 0.000000 0.000000
vn 1.000000 0.000000 0.000000
vn 1.000000 0.000000 0.000000
vn -1.000000 0.000000 0.000001
vn -1.000000 0.000000 0.000001
vn -1.000000 0.000000 0.000001
vn -1.000000 0.000000 0.000001
vn 0.000000 0.000000 1.000000
vn -0.000000 0.000000 1.000000
vn -0.000000 0.000000 1.000000
vn -0.000000 0.000000 1.000000
s 1
g pasted__pasted__pCube3 pasted__group10 group13
f 19/31/49 20/32/50 21/33/51
f 21/33/51 20/32/50 22/34/52
s 2
f 21/33/53 22/34/54 23/35/55
f 23/35/55 22/34/54 24/36/56
s 3
f 23/35/57 24/36/58 17/37/59
f 17/37/59 24/36/58 18/38/60
s 4
f 18/30/61 24/39/62 20/32/63
f 20/32/63 24/39/62 22/40/64
s 5
f 23/41/65 17/29/66 21/42/67
f 21/42/67 17/29/66 19/31/68
s 6
f 17/37/69 18/38/70 19/31/71
f 19/31/71 18/38/70 20/32/72
